PathFileType	4	(X/Y/Z)	C:\Users\WrightLab\Desktop\Jo\P5V16.trc
DataRate	CameraRate	NumFrames	NumMarkers	Units	OrigDataRate	OrigDataStartFrame	OrigNumFrames
100.00	100.00	       20	19	mm	100.00	384	       767
Frame#	Time	Headset_Front			Headset_Back			Headset_Left			Headset_Right			Left_Shoulder			Right_Shoulder			Sternum			C7			Left Elbow			Right Elbow			Left Wrist			Right Wrist			Left ASIS			Right ASIS			S2			Left Knee			Right Knee			Left Ankle			Right Ankle			
		X1	Y1	Z1	X2	Y2	Z2	X3	Y3	Z3	X4	Y4	Z4	X5	Y5	Z5	X6	Y6	Z6	X7	Y7	Z7	X8	Y8	Z8	X9	Y9	Z9	X10	Y10	Z10	X11	Y11	Z11	X12	Y12	Z12	X13	Y13	Z13	X14	Y14	Z14	X15	Y15	Z15	X16	Y16	Z16	X17	Y17	Z17	X18	Y18	Z18	X19	Y19	Z19	

384	3.830	-317.46579	1549.36108	405.14847							-447.31781	1622.14502	376.26096	-299.01563	1515.41870	12.69687	-562.94696	1470.91455	332.20572	-373.30331	1330.61182	232.00137	-530.59680	1532.54553	102.34269	-300.12790	1246.13123	-118.81311	-714.75647	1218.72217	332.20712	-175.35526	1105.67407	9.12530	-559.70862	1076.46228	444.52551	-288.76358	940.69836	116.81218	-487.93860	958.38684	322.07809	-573.73090	990.09033	11.04754	-232.54419	552.62726	208.74869	-618.62573	512.20715	318.17264	-434.32721	216.84877	90.96726	-688.07813	109.07011	192.47777	
385	3.840	-311.99899	1547.30920	411.16312							-441.77573	1620.69727	382.21991	-294.23026	1516.11035	18.42714	-557.75195	1469.64185	338.61954	-368.83618	1330.49512	237.10410	-525.76685	1532.42297	108.94823	-295.66617	1246.65503	-113.37402	-708.93835	1217.97803	339.12415	-170.50882	1106.33948	13.62292	-552.59387	1075.92212	450.96616	-284.31815	939.96906	122.82178	-482.67337	957.04535	328.01437	-569.16711	990.01007	16.25507	-222.74168	554.69666	212.36426	-611.53760	510.12088	321.96408	-416.48254	209.51888	105.19129	-687.17743	109.28450	192.87698	
386	3.850	-307.02328	1546.13074	417.26587							-437.04422	1619.81592	388.88623	-289.41797	1516.13318	23.77155	-552.08197	1468.64514	344.59399	-363.40414	1329.84753	242.61246	-520.83868	1532.24194	114.61019	-291.07010	1247.36096	-107.72987	-703.18469	1217.42285	345.73795	-165.24667	1107.07910	17.84453	-545.21771	1075.84644	456.59561	-279.97586	939.75513	127.60298	-476.57581	957.79858	333.73337	-564.42273	990.08978	21.40024	-215.16139	557.02539	215.92973	-605.37885	508.33832	326.93051	-397.76208	202.32620	119.14716	-686.73340	109.83981	193.43285	
387	3.860	-303.21490	1545.14453	423.93277							-431.67352	1619.27429	395.39774	-284.21814	1516.31958	29.76205	-547.32605	1468.19287	351.02655	-358.03268	1329.28979	248.28917	-515.71588	1532.07007	120.63172	-287.24716	1247.55005	-102.73185	-697.21564	1216.18896	352.04868	-160.31485	1106.91406	23.84352	-538.89185	1075.57239	463.31897	-275.69345	939.19995	133.16617	-471.56931	955.87390	338.89224	-559.36530	990.33008	26.72764	-205.77226	558.06708	219.32655	-598.52100	506.25180	331.82123	-377.41080	194.53410	132.23961	-686.78986	110.81085	194.18541	
388	3.870	-297.57095	1543.68738	429.95596							-426.70950	1618.09204	401.68469	-279.13675	1516.16943	36.00719	-542.23834	1467.90649	357.24060	-352.29471	1328.92773	254.68405	-510.37305	1531.77820	127.59151	-281.86905	1247.35742	-97.10047	-691.47028	1215.16833	358.84723	-154.61481	1107.21436	28.71801	-531.99426	1075.40210	469.43890	-271.41675	938.94446	138.20367	-465.97479	954.73993	343.91339	-554.27283	990.66992	30.95780	-197.03984	559.54730	222.35063	-592.49872	504.38800	333.32544	-356.54074	188.21516	145.69501	-686.18555	111.81464	194.98506	
389	3.880	-292.46875	1542.21570	436.16132							-420.95581	1616.87366	407.81491	-273.40894	1515.61511	42.63345	-536.87671	1467.19067	363.23645	-347.82712	1328.19775	260.73804	-504.81555	1530.72400	134.09706	-276.31943	1247.78931	-91.93239	-685.65204	1214.42773	365.55350	-148.79489	1107.76746	33.23275	-525.25574	1074.75513	474.83682	-266.68207	938.32751	143.38832	-460.73593	953.65753	350.25247	-548.98090	990.46844	36.73978	-188.69243	561.18536	225.60181	-585.13806	503.96136	337.79153	-334.66623	181.58139	157.88046	-685.69006	112.05611	194.90453	
390	3.890										-415.81802	1615.72571	413.99966	-267.76111	1515.34912	48.83720	-531.21936	1466.32385	369.03806	-342.27255	1327.77710	266.57996	-499.25000	1530.57153	140.37878	-271.53119	1247.34033	-85.43746	-679.40485	1213.49780	371.38235	-142.90491	1107.64905	38.78259	-518.62354	1074.33972	481.07584	-262.94827	936.13123	147.06873	-454.98782	953.88184	356.06979	-543.42468	990.39703	41.60286	-180.53130	561.74274	228.90862	-578.61432	502.83270	342.81674	-311.85007	174.62848	169.73532	-685.24908	112.92097	195.43118	
391	3.900										-410.49023	1615.14612	420.19724	-261.79294	1515.41321	54.68195	-525.50330	1465.65466	374.67511	-336.37274	1327.40283	272.43320	-493.49786	1530.03699	146.15482	-265.76590	1247.86487	-80.30399	-672.95410	1212.63208	377.20987	-136.80135	1107.70544	43.41091	-511.94891	1073.27100	486.39792	-257.16446	936.57196	151.91690	-451.50674	952.11816	359.93079	-537.68097	990.30768	46.21801	-173.42847	563.20886	231.62605	-571.83575	502.13898	347.15051	-288.12851	167.85245	181.50555	-684.48419	113.85944	195.80695	
392	3.910	-275.29218	1538.96228	454.16965							-404.92517	1614.13989	426.16940	-255.79831	1515.36963	60.34901	-520.15887	1465.13013	380.49725	-330.72681	1326.86316	278.48007	-487.35260	1529.81433	151.88065	-259.58408	1248.21130	-74.24172	-666.35284	1211.74243	383.03159	-130.52740	1107.86755	49.03975	-506.04694	1073.50085	492.97910	-251.60266	936.85742	156.75845	-444.52667	952.61786	364.97617	-531.59387	990.49243	51.07578	-166.31683	563.19781	234.97525	-565.29114	501.35934	352.19983	-264.80743	162.09390	192.65939	-684.00385	114.92975	195.73964	
393	3.920										-398.81845	1613.51135	432.17981	-249.69633	1515.16821	67.16770	-514.73511	1464.62256	386.33463	-324.40536	1326.51453	284.60794	-481.18454	1529.53101	157.62805	-253.38614	1248.84802	-69.30150	-660.31140	1210.81689	388.40726	-123.80343	1108.08167	54.82917	-499.32056	1072.15430	498.14557	-245.77242	936.28046	162.06360	-439.52011	950.81055	370.21484	-525.14923	990.56146	55.78030	-159.05287	563.82806	237.30351	-558.52521	500.47617	357.77115	-240.45436	155.94923	203.89323	-682.77283	115.77934	196.13251	
394	3.930	-264.71677	1537.77026	466.69473							-393.25165	1612.91394	438.38968	-242.96031	1515.00586	73.52914	-508.91888	1464.24146	391.97177	-318.24304	1326.93176	290.01401	-474.96857	1529.19275	163.53435	-246.57709	1248.26660	-64.00311	-654.06195	1210.16797	394.02368	-116.99975	1108.07263	59.61769	-492.48471	1072.47144	503.33716	-239.81932	936.83832	167.24997	-433.30402	950.91669	375.54129	-518.60345	990.00464	60.86839	-152.13240	563.13031	239.98256	-551.46851	500.18259	363.36328	-215.96930	150.03050	215.06189	-681.82007	116.50893	196.49452	
395	3.940	-259.67627	1537.16113	473.15536							-387.02838	1612.63306	444.20810	-236.21623	1515.10352	79.40125	-502.96835	1464.12939	397.50641	-311.82025	1326.07385	296.34030	-468.40656	1528.76160	168.98958	-239.84729	1248.56775	-56.53513	-647.83002	1209.68408	398.99396	-110.11741	1107.65259	65.53566	-486.01102	1071.40820	508.84503	-234.06268	936.48407	172.22739	-427.58209	950.09705	380.12878	-511.81760	990.05481	65.04713	-144.81888	562.28619	241.92036	-544.75281	500.09833	368.51361	-190.44101	144.74384	225.64235	-681.80817	117.99487	196.96416	
396	3.950	-253.58165	1536.18335	479.31644							-381.27997	1611.77222	450.18076	-229.36809	1515.33838	85.67361	-496.99777	1463.89966	403.11810	-305.14563	1326.06067	302.22159	-461.98062	1528.43372	174.98541	-231.87772	1248.07471	-49.96466	-641.23523	1208.87195	403.99191	-102.41886	1107.42114	71.79627	-480.11176	1071.01416	514.41724	-226.47896	936.66437	178.53984	-421.78152	950.29968	385.13174	-504.89972	989.88220	68.53661	-138.48495	560.38110	243.31131	-538.07068	499.62473	375.30743	-165.78282	140.54973	235.80994	-680.69135	119.36143	197.10930	
397	3.960	-247.73001	1535.75000	485.44519							-375.02161	1611.14539	455.85046	-222.85950	1514.73230	92.93082	-490.44272	1463.26758	408.57700	-298.38742	1326.27319	308.77682	-454.86407	1528.15771	180.27086	-223.83972	1248.33020	-45.17210	-634.80774	1208.24573	409.17438	-94.80708	1107.75708	77.99724	-473.38861	1069.83948	519.63275	-220.25931	936.15991	184.28297	-415.20410	949.45734	390.12167	-497.63397	989.61682	72.83877	-130.17888	557.99725	244.21727	-533.32385	498.78381	377.67795	-140.88770	136.52321	246.76918	-679.71637	120.55937	197.65973	
398	3.970	-241.57826	1535.20313	491.44086							-368.99081	1610.95215	461.77051	-214.94252	1515.19238	97.81489	-483.93271	1462.81226	413.99371	-291.72876	1325.86035	315.33240	-447.90463	1527.80664	186.04398	-215.60925	1248.33801	-39.48475	-627.80371	1207.74670	414.43451	-86.90009	1107.53625	84.31757	-467.23322	1069.44092	524.80072	-212.07063	936.93964	189.74536	-407.40369	949.93140	395.54297	-490.35989	989.38397	76.68415	-124.27377	554.89935	245.34615	-526.58740	498.06702	382.95959	-117.04779	133.88631	255.75230	-678.82953	122.61927	198.10291	
399	3.980										-362.58871	1610.60730	467.74576	-207.51494	1515.31677	104.28212	-477.45609	1462.29785	419.29666	-284.87274	1324.91650	321.05521	-440.63300	1527.48340	191.46005	-207.37465	1248.58875	-31.59010	-621.04626	1207.10681	418.84238	-78.78081	1107.29370	90.36102	-461.00784	1068.69324	529.91815	-203.79984	937.01617	195.51811	-402.36969	949.35876	399.36511	-482.45914	989.55438	80.85441	-118.05539	551.77203	246.12039	-520.84668	497.09219	386.99048	-93.25740	131.27216	266.03055	-677.76599	124.10968	198.85258	
400	3.990	-228.51340	1534.00586	503.28220							-356.12485	1609.99072	473.25613	-200.10216	1515.47986	109.46564	-470.79654	1461.88550	424.67371	-278.05533	1324.62793	327.01727	-433.32843	1527.01733	197.03706	-199.46190	1247.89612	-26.60174	-614.15186	1206.71399	423.40808	-70.97488	1107.56897	97.25123	-454.33383	1068.39294	535.38519	-196.32434	936.83344	201.59439	-396.02289	948.55768	404.53308	-474.03888	988.79401	86.14607	-112.50212	546.96228	247.02754	-514.79810	496.90045	390.54071	-70.80054	129.45096	275.20847	-676.54828	125.67984	199.39122	
401	4.000	-221.46420	1532.93921	508.93008							-349.71768	1609.50635	478.60471	-192.17447	1515.34485	117.12254	-464.20456	1461.41028	430.38187	-269.74341	1324.68579	333.27689	-425.84335	1526.47742	202.51466	-190.13872	1248.02466	-20.11636	-607.46875	1206.46765	428.00949	-62.08480	1107.33228	103.95890	-448.40372	1067.47986	539.92010	-188.03682	937.04236	207.53122	-389.54730	948.08478	407.73172	-465.74042	988.55304	89.97462	-106.49727	542.74298	246.98799	-508.34912	495.96655	394.69254	-51.29836	128.87634	283.96207	-675.34393	127.16171	200.15189	
402	4.010	-215.29807	1532.30603	514.84161							-342.62180	1608.76685	484.13910	-183.88358	1515.15369	123.13673	-457.05182	1461.17029	435.64554	-262.44882	1325.06213	339.12399	-417.85593	1525.95654	207.63547	-181.11948	1248.76636	-14.54674	-600.79285	1206.06812	432.00693	-53.35609	1107.55786	109.90182	-441.88568	1067.36450	544.85815	-179.73859	936.89722	213.40881	-382.23407	947.56403	412.09406	-457.42697	987.89471	94.07248	-100.65697	539.07709	248.46790	-502.79938	495.89813	398.88174	-31.89637	128.12326	292.84073	-673.92694	129.69954	200.90305	
403	4.020	-208.43762	1531.54810	520.45966							-335.79858	1608.38330	489.28070	-176.44759	1514.36804	128.16142	-449.72888	1460.68420	440.95560	-255.03745	1324.00586	344.73431	-410.06281	1525.05469	212.94922	-171.62347	1248.30994	-8.02679	-593.68713	1205.52698	436.03235	-44.21547	1107.51025	116.69497	-435.98117	1066.62354	549.90576	-171.20967	936.65198	219.63123	-375.20508	947.75677	416.92868	-448.72382	987.37848	97.89838	-93.89426	534.92023	249.68050	-496.33774	494.84464	402.89459	-16.61459	128.08058	300.15683	-672.71564	131.70674	202.03307	
